<svg width="18" height="19" viewBox="0 0 18 19" fill="none" xmlns="http://www.w3.org/2000/svg">
<path d="M8.53948 2.73096C7.47783 2.73114 6.43095 2.97971 5.48253 3.45679C4.5341 3.93387 3.71046 4.62623 3.07743 5.47851C2.44441 6.3308 2.01957 7.31937 1.83687 8.36518C1.65418 9.411 1.7187 10.4851 2.02528 11.5015C2.33186 12.5179 2.87199 13.4485 3.60249 14.2189C4.33299 14.9892 5.2336 15.578 6.23232 15.9381C7.23103 16.2982 8.30014 16.4197 9.35418 16.2928C10.4082 16.1659 11.418 15.7941 12.3026 15.2072C12.391 15.1484 12.4525 15.0569 12.4734 14.9529C12.4944 14.8488 12.4731 14.7406 12.4143 14.6522C12.3555 14.5638 12.264 14.5024 12.16 14.4815C12.0559 14.4605 11.9477 14.4818 11.8593 14.5406C10.7445 15.2803 9.41457 15.6266 8.08054 15.5245C6.7465 15.4223 5.48478 14.8776 4.49557 13.9768C3.50635 13.0759 2.84631 11.8705 2.62015 10.5518C2.394 9.23316 2.6147 7.87672 3.24723 6.69774C3.87976 5.51876 4.88789 4.58478 6.11167 4.04399C7.33544 3.5032 8.70477 3.38658 10.0024 3.71262C11.3 4.03866 12.4515 4.7887 13.2743 5.84372C14.0971 6.89875 14.5441 8.19833 14.5442 9.53627C14.5442 11.51 13.6245 11.8047 13.0764 11.8047C12.5282 11.8047 11.6085 11.51 11.6085 9.53627V6.86752C11.6085 6.76135 11.5664 6.65953 11.4913 6.58445C11.4162 6.50938 11.3144 6.4672 11.2082 6.4672C11.1021 6.4672 11.0002 6.50938 10.9252 6.58445C10.8501 6.65953 10.8079 6.76135 10.8079 6.86752V7.47128C10.3776 6.99827 9.81027 6.6715 9.1852 6.53662C8.56012 6.40174 7.90853 6.46548 7.32145 6.71895C6.73437 6.97242 6.24113 7.40295 5.91064 7.95039C5.58015 8.49782 5.42892 9.13483 5.47809 9.77239C5.52725 10.41 5.77435 11.0162 6.18486 11.5065C6.59537 11.9968 7.14878 12.3467 7.76778 12.5071C8.38678 12.6676 9.04045 12.6307 9.63745 12.4016C10.2345 12.1725 10.745 11.7626 11.0977 11.2292C11.459 12.1115 12.1445 12.6053 13.0764 12.6053C14.4968 12.6053 15.3448 11.458 15.3448 9.53627C15.3428 7.73201 14.6251 6.00224 13.3493 4.72644C12.0735 3.45063 10.3437 2.73299 8.53948 2.73096ZM8.53948 11.8047C8.09083 11.8047 7.65225 11.6717 7.27921 11.4224C6.90617 11.1731 6.61541 10.8189 6.44372 10.4044C6.27203 9.98986 6.22711 9.53375 6.31463 9.09372C6.40216 8.65369 6.61821 8.24949 6.93546 7.93224C7.2527 7.615 7.6569 7.39895 8.09693 7.31142C8.53697 7.22389 8.99308 7.26881 9.40758 7.44051C9.82208 7.6122 10.1764 7.90295 10.4256 8.27599C10.6749 8.64904 10.8079 9.08762 10.8079 9.53627C10.8073 10.1377 10.568 10.7143 10.1428 11.1396C9.7175 11.5648 9.14091 11.804 8.53948 11.8047Z" fill="white"/>
</svg>
