<svg width="18" height="18" viewBox="0 0 18 18" fill="none" xmlns="http://www.w3.org/2000/svg">
<path d="M15.479 4.27013V12.8101C15.4787 13.0931 15.3661 13.3644 15.166 13.5645C14.9658 13.7646 14.6945 13.8772 14.4115 13.8776L5.47438 13.9026L3.35607 15.6837C3.16508 15.8459 2.92277 15.9351 2.6722 15.9354C2.51548 15.9352 2.36071 15.9007 2.21873 15.8343C2.03364 15.7495 1.87697 15.613 1.7675 15.4413C1.65804 15.2696 1.60043 15.07 1.60158 14.8664V4.27013C1.60195 3.98713 1.71453 3.71582 1.91465 3.51571C2.11476 3.31559 2.38607 3.203 2.66908 3.20264H14.4115C14.6945 3.203 14.9658 3.31559 15.166 3.51571C15.3661 3.71582 15.4787 3.98713 15.479 4.27013Z" fill="white"/>
</svg>
