<svg width="21" height="21" viewBox="0 0 21 21" fill="none" xmlns="http://www.w3.org/2000/svg">
<g clip-path="url(#clip0_1880_710)">
<path d="M6.0888 14.1107L7.78125 13.4436C8.18764 13.2831 8.63873 13.317 9.01348 13.5333L10.6171 14.4592C12.2971 12.9482 13.4663 10.9331 13.933 8.71584L12.3207 7.78497C11.9459 7.56861 11.6911 7.19488 11.6268 6.7627L11.3621 4.97718C11.2585 4.26086 11.7028 3.58192 12.4039 3.39407L13.593 3.07545C14.3697 2.86733 15.1889 3.34031 15.3489 4.12991C16.5575 10.0975 13.119 16.0431 7.35351 17.9784C6.5897 18.2346 5.77047 17.7616 5.56236 16.9849L5.24374 15.7958C5.05085 15.1034 5.41668 14.3792 6.0888 14.1107Z" fill="white"/>
</g>
<defs>
<clipPath id="clip0_1880_710">
<rect width="17.0783" height="17.0783" fill="white" transform="matrix(-0.965926 0.258819 0.258819 0.965926 16.4961 0.0800781)"/>
</clipPath>
</defs>
</svg>
