<svg width="18" height="18" viewBox="0 0 18 18" fill="none" xmlns="http://www.w3.org/2000/svg">
<path d="M8.54002 1.79187C6.18127 1.79187 4.27002 3.69544 4.27002 6.05333C4.27002 10.1303 8.54002 15.4473 8.54002 15.4473C8.54002 15.4473 12.81 10.1295 12.81 6.05333C12.81 3.69629 10.8988 1.79187 8.54002 1.79187ZM8.54002 8.41122C7.92848 8.41122 7.34199 8.16829 6.90957 7.73587C6.47715 7.30345 6.23422 6.71696 6.23422 6.10542C6.23422 5.49389 6.47715 4.9074 6.90957 4.47498C7.34199 4.04256 7.92848 3.79962 8.54002 3.79962C9.15156 3.79962 9.73804 4.04256 10.1705 4.47498C10.6029 4.9074 10.8458 5.49389 10.8458 6.10542C10.8458 6.71696 10.6029 7.30345 10.1705 7.73587C9.73804 8.16829 9.15156 8.41122 8.54002 8.41122Z" fill="white"/>
</svg>
