<svg width="20" height="20" viewBox="0 0 20 20" fill="none" xmlns="http://www.w3.org/2000/svg">
<g clip-path="url(#clip0_1880_702)">
<path d="M9.98047 0.078125C12.6758 0.078125 13.0078 0.0976562 14.0625 0.136719C15.0977 0.175781 15.8203 0.351562 16.4648 0.605469C17.1289 0.859375 17.6758 1.19141 18.2227 1.73828C18.7695 2.28516 19.1016 2.83203 19.3555 3.49609C19.6094 4.14062 19.7852 4.86328 19.8242 5.89844C19.8633 6.95312 19.8828 7.28516 19.8828 9.98047C19.8828 12.6758 19.8633 13.0078 19.8242 14.0625C19.7852 15.0977 19.6094 15.8203 19.3555 16.4648C19.1016 17.1289 18.7695 17.6758 18.2227 18.2227C17.6758 18.7695 17.1289 19.1016 16.4648 19.3555C15.8203 19.6094 15.0977 19.7852 14.0625 19.8242C13.0078 19.8633 12.6758 19.8828 9.98047 19.8828C7.28516 19.8828 6.95312 19.8633 5.89844 19.8242C4.86328 19.7852 4.14062 19.6094 3.49609 19.3555C2.83203 19.1016 2.28516 18.7695 1.73828 18.2227C1.19141 17.6758 0.859375 17.1289 0.605469 16.4648C0.351562 15.8203 0.175781 15.0977 0.136719 14.0625C0.0976562 13.0078 0.078125 12.6758 0.078125 9.98047C0.078125 7.28516 0.0976562 6.95312 0.136719 5.89844C0.175781 4.86328 0.351562 4.14062 0.605469 3.49609C0.859375 2.83203 1.19141 2.28516 1.73828 1.73828C2.28516 1.19141 2.83203 0.859375 3.49609 0.605469C4.14062 0.351562 4.86328 0.175781 5.89844 0.136719C6.95312 0.0976562 7.28516 0.078125 9.98047 0.078125ZM9.98047 1.36719C7.16797 1.36719 6.83594 1.38672 5.74219 1.42578C4.72656 1.46484 4.16016 1.66016 3.78906 1.79688C2.83203 2.1875 2.1875 2.83203 1.79688 3.78906C1.66016 4.16016 1.46484 4.72656 1.42578 5.74219C1.38672 6.83594 1.36719 7.16797 1.36719 9.98047C1.36719 12.793 1.38672 13.125 1.42578 14.2188C1.46484 15.2344 1.66016 15.8008 1.79688 16.1719C2.1875 17.1289 2.83203 17.7734 3.78906 18.1641C4.16016 18.3008 4.72656 18.4961 5.74219 18.5352C6.83594 18.5742 7.16797 18.5938 9.98047 18.5938C12.793 18.5938 13.125 18.5742 14.2188 18.5352C15.2344 18.4961 15.8008 18.3008 16.1719 18.1641C17.1289 17.7734 17.7734 17.1289 18.1641 16.1719C18.3008 15.8008 18.4961 15.2344 18.5352 14.2188C18.5742 13.125 18.5938 12.793 18.5938 9.98047C18.5938 7.16797 18.5742 6.83594 18.5352 5.74219C18.4961 4.72656 18.3008 4.16016 18.1641 3.78906C17.7734 2.83203 17.1289 2.1875 16.1719 1.79688C15.8008 1.66016 15.2344 1.46484 14.2188 1.42578C13.125 1.38672 12.793 1.36719 9.98047 1.36719ZM9.98047 13.9453C12.168 13.9453 13.9453 12.168 13.9453 9.98047C13.9453 7.79297 12.168 6.01562 9.98047 6.01562C7.79297 6.01562 6.01562 7.79297 6.01562 9.98047C6.01562 12.168 7.79297 13.9453 9.98047 13.9453ZM9.98047 4.90234C12.793 4.90234 15.0586 7.16797 15.0586 9.98047C15.0586 12.793 12.793 15.0586 9.98047 15.0586C7.16797 15.0586 4.90234 12.793 4.90234 9.98047C4.90234 7.16797 7.16797 4.90234 9.98047 4.90234ZM16.4648 4.70703C16.4648 5.37109 15.918 5.87891 15.2539 5.87891C14.5898 5.87891 14.082 5.37109 14.082 4.70703C14.082 4.04297 14.5898 3.49609 15.2539 3.49609C15.918 3.49609 16.4648 4.04297 16.4648 4.70703Z" fill="#494C4E"/>
</g>
<defs>
<clipPath id="clip0_1880_702">
<rect width="20" height="20" fill="white"/>
</clipPath>
</defs>
</svg>
